<svg xmlns="http://www.w3.org/2000/svg" viewBox="0 0 487 487">
    <path fill="#e24e1b" d="M417 74C372 29 311 4 248 4S123 29 78 74C35 117 11 173 8 234c0 1 0 2 0 3 0 2 0 5 0 7 0 64 25 124 70 169 12 12 26 23 40 
    33 -9-3-17-7-24-10C64 422 40 412 6 420c-4 1-7 5-6 9 1 4 5 7 9 6 29-7 50 2 79 14 36 15 80 34 159 34 64 0 124-25 169-70 45-45 70-105 70-169S462 
    119 417 74zM421 386L229 467c-14-1-27-3-40-7l255-108C437 364 430 375 421 386zM394 414c-36 31-79 49-126 53L394 414zM454 332c0 0-1 0-1 0L167 
    453c-9-4-18-8-27-12l323-137C461 314 458 323 454 332zM468 286L125 431c-7-5-14-10-20-15l367-155C471 269 470 278 468 286zM54 358l410-173c2 7 4 14 
    5 22L66 376C62 370 58 364 54 358zM38 324l212-90c0 0 0 0 0 0l201-85c3 7 6 13 8 20L47 344C43 338 41 331 38 324zM40 158l105 105 -26 11c0-1-1-3-2-4L31 
    184C33 175 36 167 40 158zM59 122l125 125 -24 10L46 144C50 136 54 129 59 122zM105 280l-24 10 -57-57c0-11 2-21 4-31L105 280zM23 254l42 42 -33 14C27 
    292 24 273 23 254zM94 80c8-8 17-15 26-21v47L94 80zM135 49c8-5 16-9 25-12v109l-25-25V49zM175 31c8-3 17-5 25-7v161l-25-25V31zM215 21c8-1 17-2 
    25-2V223l-2 1 -23-23V21zM400 155l-25 11V59c9 6 17 13 25 20V155zM360 172l-25 11v-146c9 4 17 8 25 12V172zM320 189l-25 11V24c8 2 17 4 25 7V189zM280 
    206l-25 11V19c8 0 17 1 25 2V206zM445 136l-30 13V94C427 107 436 121 445 136zM84 90l140 140 -24 10L68 109C73 103 78 96 84 90zM76 388l395-167c1 7 1 
    15 1 22 0 0 0 1 0 1L92 405c-1-1-2-2-3-3C84 398 80 393 76 388z"/>
</svg>